# xmcd
#
# Track frame offsets:
#	150
#	12899
#	25091
#	37224
#	49361
#	61365
#	73540
#	85378
#	98730
#	112161
#	120743
#	132594
#	144277
#	156854
#	168852
#	182277
#	194738
#	206798
#	218978
#	229206
#	240167
#	251665
#	262133
#	274227
#	287609
#
# Disc length: 3971 seconds
# Revision: 0
# Processed by: cddbd v1.5.2PL0 Copyright (c) Steve Scherf et al.
# Submitted via: dBpowerAMP V12.0
#
DISCID=7c0f8119
DTITLE=Tiny Bradshaw - The Very Best of Tiny Bradshaw, Well Oh Well
DYEAR=2004
DGENRE=Blues
TTITLE0=Gravy Train - Henery Bernard
TTITLE1=Boodie Green - Bradshaw, Bernard, Lawrence and Rogers
TTITLE2=Walkin' The Chalk Line - Bernard and Norman
TTITLE3=Well Oh Well - Mann, Bradshaw and Bernard
TTITLE4=I'm Going to Have Myself a Ball - Bradshaw, Nix and Glover
TTITLE5=Breaking Up The House - Mann and Glover
TTITLE6=Walk That Mess - Bradshaw and Glover
TTITLE7=Snaggle Tooth Ruth - Bradshaw and Glover
TTITLE8=Brad's Blues - Robinson and Bradshaw
TTITLE9=Bradshaw Boogie - Mann and Glover
TTITLE10=Two Dry Bones on the Pantry Shelf - Bradshaw and Glover
TTITLE11=The Blues Came Pouring Down - Long, Mann, Roberts and Glover
TTITLE12=Long Time Baby - Tiny Bradshaw
TTITLE13=I'm a Hi Ballin' Daddy - Bradshaw, Nathan, and Jones
TTITLE14=T 99 - Nelson and Taub
TTITLE15=The Train Kept a Rollin' - Bradshaw and Mann
TTITLE16=Rippin' and Runnin' - Kennedy and Bradshaw
TTITLE17=Newspaper Boy Blues - Bradshaw and Kennedy
TTITLE18=Mailman's Sack - Bradshaw, Glover and Mann
TTITLE19=Lay It on the Line - Bradshaw, Glover and Mann
TTITLE20=Soft - Tiny Bradshaw
TTITLE21=Heavy Juice - Bradshaw, Bass and Prysock
TTITLE22=Free for All - Bradshaw and Prysock
TTITLE23=Ping Pong - Bradshaw, Glove and Austin
TTITLE24=Overflow - Henry Glover
EXTD=
EXTT0=
EXTT1=
EXTT2=
EXTT3=
EXTT4=
EXTT5=
EXTT6=
EXTT7=
EXTT8=
EXTT9=
EXTT10=
EXTT11=
EXTT12=
EXTT13=
EXTT14=
EXTT15=
EXTT16=
EXTT17=
EXTT18=
EXTT19=
EXTT20=
EXTT21=
EXTT22=
EXTT23=
EXTT24=
PLAYORDER=
